- 
http://www.Speed.Cd      fast  and The Hottest Private Tracker on the net

   signup is open now

Please Seed back to make the speed Faster!!!

------------------nfo--------------------------
-[IMG]http://img256.imageshack.us/img256/2334/11osn.jpg[/IMG]


[color=blue][size=5][b]11-11-11.2011.DVDRip.XVID.AC3.UNE-CM8[/b][/size][/color]


[b]Thx Hive

CM8 Doing It Right The First Time :D


Source: DVD-R

Encode:

Unevano already made a version earlier when i didnt have the time. Still this movie 
deserves a high quality version of mine, so here it is if you like :P
DVD had good quality, added brightness,sharpness,rgb and denoise
got very nice
enjoy

Video: 720x304 @bitrate 1700 2pass
Audio: English AC3 5.1 @448
Sample: yes included[/b]


[url]http://www.imdb.com/title/tt1712159/[/url]


General
Complete name                  : 11-11-11.2011.DVDRip.XVID.AC3.HQ.Hive-CM8.avi
Format                         : AVI
Format/Info                    : Audio Video Interleave
File size                      : 1.40 GiB
Duration                       : 1h 32mn
Overall bit rate               : 2 157 Kbps
Writing application            : Nandub v1.0rc2
Writing library                : Nandub build 1853/release

Video
ID                             : 0
Format                         : MPEG-4 Visual
Format profile                 : Advanced Simple@L5
Format settings, BVOP          : 2
Format settings, QPel          : Yes
Format settings, GMC           : No warppoints
Format settings, Matrix        : Default (H.263)
Muxing mode                    : Packed bitstream
Codec ID                       : XVID
Codec ID/Hint                  : XviD
Duration                       : 1h 32mn
Bit rate                       : 1 700 Kbps
Width                          : 720 pixels
Height                         : 304 pixels
Display aspect ratio           : 2.35:1
Frame rate                     : 25.000 fps
Color space                    : YUV
Chroma subsampling             : 4:2:0
Bit depth                      : 8 bits
Scan type                      : Progressive
Compression mode               : Lossy
Bits/(Pixel*Frame)             : 0.311
Stream size                    : 1.10 GiB (79%)
Writing library                : XviD 1.2.1 (UTC 2008-12-04)

Audio
ID                             : 1
Format                         : AC-3
Format/Info                    : Audio Coding 3
Mode extension                 : CM (complete main)
Codec ID                       : 2000
Duration                       : 1h 32mn
Bit rate mode                  : Constant
Bit rate                       : 448 Kbps
Channel(s)                     : 6 channels
Channel positions              : Front: L C R, Side: L R, LFE
Sampling rate                  : 48.0 KHz
Bit depth                      : 16 bits
Compression mode               : Lossy
Stream size                    : 298 MiB (21%)
Alignment                      : Split accross interleaves
Interleave, duration           : 40 ms (1.00 video frame)
Interleave, preload duration   : 500 ms


Plot:

After his death of his wife and child, an author travels to Barcelona to see his 
estranged brother and dying father, where he learns that his life is plagued by events that occur on 11/11/11. 

Cast:

Timothy Gibbs	... 	Joseph Crone
Michael Landes	... 	Samuel
Denis Rafter	... 	Richard Crone
Wendy Glenn	... 	Sadie

[img]http://img208.imageshack.us/img208/3705/74795741.png[/img]
[img]http://img683.imageshack.us/img683/8110/1111cl.png[/img]
[img]http://img443.imageshack.us/img443/3373/111111ydqz.png[/img]
[img]http://img153.imageshack.us/img153/7618/11111111e.png[/img]
[img]http://img408.imageshack.us/img408/7987/1111111111k.png[/img]




Greetz

ViSiON,SPK,SiC,SANTi,3LT0N,FUSiON,YanKeeS,MAGNET,THC,T0XiC,LKRG,FANTASIA-PLAY,FANTASIA-M,FLAWL3SS,
WBZ,ZMG,BHRG,NOVA,D2U,Vik,Rapeseed,SAFC,goldadvance,MEMORY100,KaN1vE,Unevano,Pinnz,Wayne
Mr Hive,and all P2P groups
Great Work Guys :D

LOOKING FOR ANYTHING YOU WANT TO LOOK AND SOUND BETTER

CM8@hushmail.com